<?xml version="1.0" encoding="utf-8"?>
<!-- Generator: Adobe Illustrator 16.0.4, SVG Export Plug-In . SVG Version: 6.00 Build 0)  -->
<!DOCTYPE svg PUBLIC "-//W3C//DTD SVG 1.1//EN" "http://www.w3.org/Graphics/SVG/1.1/DTD/svg11.dtd">
<svg version="1.1" id="aperture" xmlns="http://www.w3.org/2000/svg" xmlns:xlink="http://www.w3.org/1999/xlink" x="0px" y="0px"
   width="432px" height="432px" viewBox="0 0 432 432" enable-background="new 0 0 432 432" xml:space="preserve">
<path fill="#333333" d="M356.15,182.82H201.23l59.21-103.83C307.92,94.38,344.59,133.75,356.15,182.82z"/>
<path fill="#333333" d="M256.52,77.78L180,211.96l-59.71-103.54C145.73,85.76,179.26,72,216,72C230.07,72,243.67,74.02,256.52,77.78
  z"/>
<path fill="#333333" d="M194.54,245.18H74.96C73.02,235.76,72,226,72,216c0-41.31,17.4-78.56,45.27-104.82L194.54,245.18z"/>
<path fill="#333333" d="M230.83,249.18L171.76,353.07c-47.58-15.34-84.33-54.75-95.91-103.891H230.83z"/>
<path fill="#333333" d="M311.16,324.07C285.79,346.43,252.48,360,216,360c-14,0-27.53-2-40.32-5.72l76.22-134.05L311.16,324.07z"/>
<path fill="#333333" d="M360,216c0,41.58-17.62,79.04-45.81,105.32l-76.74-134.5h119.59C358.98,196.24,360,206,360,216z"/>
</svg>
